<?xml version="1.0" encoding="UTF-8" standalone="no"?>
<!-- Created with Inkscape (http://www.inkscape.org/) -->

<svg
   version="1.1"
   id="svg1"
   width="3169.4399"
   height="529.28003"
   viewBox="0 0 3169.4399 529.28003"
   xmlns="http://www.w3.org/2000/svg"
   xmlns:svg="http://www.w3.org/2000/svg">
  <defs
     id="defs1" />
  <g
     id="g1">
    <g
       id="group-R5">
      <path
         id="path2"
         d="m 23253,2470.19 c 122,0 265.8,-16.11 431.5,-48.33 l 86.3,-17.26 -13.8,-296.86 c -181.8,18.41 -316.5,27.62 -403.9,27.62 -174.9,0 -292.3,-39.12 -352.1,-117.37 -59.8,-78.24 -89.8,-225.52 -89.8,-441.84 0,-216.31 28.8,-365.9 86.3,-448.74 57.6,-82.85 177.2,-124.27 359,-124.27 l 403.9,27.62 10.4,-300.319 c -232.5,-41.421 -407.4,-62.132 -524.7,-62.132 -262.4,0 -447.6,70.191 -555.8,210.562 -105.8,142.679 -158.8,375.109 -158.8,697.279 0,322.18 56.4,551.15 169.2,686.93 112.7,138.07 296.8,207.11 552.3,207.11 z m -1478.1,255.44 v 396.96 h 376.2 v -396.96 z m 0,-2019.349 V 2432.22 h 376.2 V 706.281 Z m -1247.3,0 V 2432.22 h 372.8 v -207.11 c 195.6,126.56 391.2,208.26 586.8,245.08 v -376.26 c -197.9,-39.12 -367,-89.74 -507.4,-151.88 l -76,-31.07 V 706.281 Z m -1219,296.859 c 184.1,0 306.1,42.57 365.9,127.72 62.2,87.45 93.2,234.73 93.2,441.84 0,207.11 -26.4,352.09 -79.4,434.94 -50.6,85.14 -134.6,127.72 -252,127.72 -110.4,0 -220.9,-17.26 -331.3,-51.78 l -55.3,-17.26 V 1016.95 c 126.6,-9.21 212.9,-13.81 258.9,-13.81 z m 172.6,1467.05 c 237,0 407.3,-66.74 510.9,-200.21 105.9,-131.17 158.8,-364.75 158.8,-700.73 0,-335.98 -62.2,-570.711 -186.4,-704.18 -124.3,-131.172 -342.9,-196.761 -655.9,-196.761 -108.1,0 -279.6,10.351 -514.3,31.07 l -117.4,10.351 v 2440.48 h 372.8 v -783.58 c 158.8,69.04 302.6,103.56 431.5,103.56 z M 17431.4,1472.6 c -158.8,-13.81 -238.2,-100.11 -238.2,-258.89 0,-158.79 70.2,-238.179 210.6,-238.179 115,0 237,18.41 365.9,55.229 l 62.1,20.71 v 459.1 z m 773.2,428.03 V 1113.6 c 2.3,-50.63 14.9,-88.6 38,-113.909 25.3,-23.011 63.2,-37.972 113.9,-44.871 l -10.4,-286.511 c -197.9,0 -350.9,42.57 -459.1,127.722 -184.1,-85.152 -369.3,-127.722 -555.7,-127.722 -342.9,0 -514.4,182.953 -514.4,548.851 0,174.89 46.1,301.46 138.1,379.7 94.4,78.25 238.2,125.42 431.5,141.53 l 445.3,37.97 v 124.27 c 0,92.05 -20.7,156.48 -62.1,193.3 -39.2,36.82 -97.8,55.23 -176.1,55.23 -147.3,0 -331.4,-9.2 -552.3,-27.61 l -110.5,-6.9 -13.8,265.79 c 250.9,59.83 481,89.75 690.4,89.75 211.7,0 363.6,-46.03 455.7,-138.08 94.3,-89.75 141.5,-233.57 141.5,-431.48 z M 15229.5,706.281 V 3070.81 h 1467 V 2735.98 H 15612.6 V 1938.6 h 901 v -334.83 h -901 V 706.281 Z m -776,994.139 c 0,170.29 -27.7,288.81 -82.9,355.54 -52.9,69.04 -143.8,103.56 -272.7,103.56 -128.9,0 -223.2,-35.67 -283,-107.01 -57.6,-71.34 -87.5,-188.7 -89.8,-352.09 z m 207.1,-683.47 96.6,10.35 6.9,-279.601 c -262.3,-52.929 -494.7,-79.39 -697.3,-79.39 -255.4,0 -439.5,70.191 -552.3,210.562 -110.4,140.379 -165.6,364.749 -165.6,673.119 0,612.13 249.6,918.2 749,918.2 483.3,0 724.9,-263.49 724.9,-790.48 l -24.2,-269.25 h -1070 c 2.3,-142.67 33.3,-247.38 93.2,-314.12 59.8,-66.73 171.4,-100.098 334.8,-100.098 163.4,0 331.4,6.898 504,20.708 z M 10915.7,706.281 h -376.3 V 2432.22 h 372.8 v -107.01 c 163.4,96.65 313,144.98 448.8,144.98 200.2,0 346.3,-56.38 438.3,-169.14 209.5,112.76 417.7,169.14 624.8,169.14 207.1,0 353.3,-64.44 438.4,-193.31 85.2,-126.57 127.7,-341.73 127.7,-645.5 V 706.281 h -372.8 v 914.749 c 0,186.4 -19.5,318.72 -58.6,396.96 -36.9,78.25 -115.1,117.37 -234.8,117.37 -103.5,0 -215.1,-23.02 -334.8,-69.04 l -58.7,-24.16 c 18.4,-46.03 27.6,-193.31 27.6,-441.84 V 706.281 h -372.8 v 887.129 c 0,204.81 -18.4,346.34 -55.2,424.58 -36.8,78.25 -117.4,117.37 -241.6,117.37 -115.1,0 -222.1,-23.02 -321.1,-69.04 l -51.7,-20.71 z M 9293.8,1472.6 c -158.7,-13.81 -238.1,-100.11 -238.1,-258.89 0,-158.79 70.2,-238.179 210.5,-238.179 115.1,0 237.1,18.41 365.9,55.229 l 62.2,20.71 v 459.1 z m 773.3,428.03 V 1113.6 c 2.3,-50.63 14.9,-88.6 37.9,-113.909 25.4,-23.011 63.3,-37.972 113.9,-44.871 l -10.3,-286.511 c -197.9,0 -350.9,42.57 -459.1,127.722 -184.1,-85.152 -369.4,-127.722 -555.8,-127.722 -342.8,0 -514.3,182.953 -514.3,548.851 0,174.89 46,301.46 138.1,379.7 94.3,78.25 238.2,125.42 431.5,141.53 l 445.3,37.97 v 124.27 c 0,92.05 -20.7,156.48 -62.2,193.3 -39.1,36.82 -97.8,55.23 -176,55.23 -147.3,0 -331.4,-9.2 -552.3,-27.61 l -110.5,-6.9 -13.8,265.79 c 250.9,59.83 481,89.75 690.4,89.75 211.7,0 363.6,-46.03 455.6,-138.08 94.4,-89.75 141.6,-233.57 141.6,-431.48 z M 7680.8,1610.67 v 338.29 H 8354 V 747.699 c -62.2,-16.109 -188.7,-33.367 -379.7,-51.777 -188.7,-18.41 -325.7,-27.613 -410.8,-27.613 -359,0 -606.39,98.953 -742.17,296.863 -135.77,197.908 -203.66,507.428 -203.66,928.558 0,423.43 69.04,731.79 207.11,925.1 140.38,193.3 382.02,289.96 724.92,289.96 202.5,0 430.3,-23.02 683.4,-69.04 l 120.9,-24.17 -13.8,-303.76 c -278.5,36.82 -528.2,55.23 -749.1,55.23 -220.9,0 -372.8,-62.13 -455.6,-186.4 -80.59,-124.27 -120.86,-354.39 -120.86,-690.38 0,-335.98 37.97,-568.41 113.91,-697.28 78.25,-126.56 234.75,-189.85 469.45,-189.85 168,0 293.4,10.36 376.3,31.07 v 576.46 h -293.5"
         style="fill:#100f0d;fill-opacity:1;fill-rule:nonzero;stroke:none"
         transform="matrix(0.13333333,0,0,-0.13333333,0,529.28)" />
      <path
         id="path3"
         d="M 1.08984,1180.44 285.078,599.48 c 0,0 944.262,461.26 1695.512,1256.61 528.44,559.44 954.29,1280.77 946.6,2113.5 h -646.15 l 0.24,-6.01 C 2287.41,3304.51 1928.92,2743.03 1510.57,2300.04 841.52,1591.82 1.08984,1180.44 1.08984,1180.44"
         style="fill:#fcd144;fill-opacity:1;fill-rule:evenodd;stroke:none"
         transform="matrix(0.13333333,0,0,-0.13333333,0,529.28)" />
      <path
         id="path4"
         d="M 1760.17,1377.63 C 2061.22,988.609 2284.88,527.832 2280.07,6.01172 V 0 h 646.57 c 6.49,700.77 -294.56,1322.71 -705.1,1835.64 -33.53,-37.86 -67.66,-75.11 -102.15,-111.65 -116.58,-123.42 -237.6,-239.04 -359.22,-346.36 z M 1492.65,2568.02 C 874.191,3081.79 283.988,3370.11 283.988,3370.11 L 0,2789.15 c 0,0 497.91,-243.72 1032.35,-679.02 114.05,98.79 228.11,206.23 337.47,321.97 41.58,43.98 82.68,89.29 122.83,135.92"
         style="fill:#100f0d;fill-opacity:1;fill-rule:evenodd;stroke:none"
         transform="matrix(0.13333333,0,0,-0.13333333,0,529.28)" />
      <path
         id="path5"
         d="m 5207.07,2789.15 -283.99,580.96 c 0,0 -944.26,-461.26 -1695.51,-1256.61 C 2699.14,1554.06 2272.34,832.73 2280.03,0 h 646.73 l 0.12,6.01172 C 2920.75,665.082 3279.25,1226.56 3697.6,1669.55 c 669.04,708.23 1509.47,1119.6 1509.47,1119.6"
         style="fill:#100f0d;fill-opacity:1;fill-rule:evenodd;stroke:none"
         transform="matrix(0.13333333,0,0,-0.13333333,0,529.28)" />
      <path
         id="path6"
         d="M 3713.58,1402.41 C 4332.39,888.16 4923.2,599.48 4923.2,599.48 l 283.99,580.96 c 0,0 -498.51,243.96 -1033.32,679.74 -114.05,-98.67 -228.1,-206.11 -337.35,-321.84 -41.58,-44.11 -82.68,-89.42 -122.94,-135.93 z M 3447.74,2591 c -301.41,389.26 -525.43,850.28 -520.62,1372.58 l 0.11,6.01 h -646.68 c -6.49,-701.25 294.92,-1323.43 705.82,-1836.6 33.65,37.98 67.78,75.23 102.27,111.77 116.58,123.42 237.6,238.92 359.1,346.24"
         style="fill:#fcd144;fill-opacity:1;fill-rule:evenodd;stroke:none"
         transform="matrix(0.13333333,0,0,-0.13333333,0,529.28)" />
    </g>
  </g>
</svg>
